<svg width="1035" height="337" viewBox="0 0 1035 337" fill="none" xmlns="http://www.w3.org/2000/svg">
<g clip-path="url(#clip0_1_4564)">
<path d="M108.1 256V87.425H42.1V63.5H201.325V87.425H135.325V256H108.1ZM227.426 256V110.25H253.826V256H227.426ZM240.626 82.2C235.493 82.2 231.185 80.55 227.701 77.25C224.401 73.95 222.751 69.9167 222.751 65.15C222.751 60.2 224.401 56.075 227.701 52.775C231.185 49.475 235.493 47.825 240.626 47.825C245.76 47.825 249.976 49.475 253.276 52.775C256.76 55.8917 258.501 59.8333 258.501 64.6C258.501 69.55 256.851 73.7667 253.551 77.25C250.251 80.55 245.943 82.2 240.626 82.2ZM486.558 108.875C498.291 108.875 508.65 111.167 517.633 115.75C526.616 120.333 533.583 127.3 538.533 136.65C543.666 146 546.233 157.825 546.233 172.125V256H519.833V175.15C519.833 161.033 516.533 150.4 509.933 143.25C503.333 136.1 494.075 132.525 482.158 132.525C473.358 132.525 465.658 134.358 459.058 138.025C452.458 141.692 447.325 147.1 443.658 154.25C440.175 161.4 438.433 170.292 438.433 180.925V256H412.033V175.15C412.033 161.033 408.733 150.4 402.133 143.25C395.716 136.1 386.458 132.525 374.358 132.525C365.741 132.525 358.133 134.358 351.533 138.025C344.933 141.692 339.8 147.1 336.133 154.25C332.466 161.4 330.633 170.292 330.633 180.925V256H304.233V110.25H329.533V149.025L325.408 139.125C329.991 129.592 337.05 122.167 346.583 116.85C356.116 111.533 367.208 108.875 379.858 108.875C393.791 108.875 405.8 112.358 415.883 119.325C425.966 126.108 432.566 136.467 435.683 150.4L424.958 146C429.358 134.817 437.058 125.833 448.058 119.05C459.058 112.267 471.891 108.875 486.558 108.875ZM672.084 257.65C659.984 257.65 648.893 254.9 638.809 249.4C628.909 243.717 620.934 235.375 614.884 224.375C609.018 213.375 606.084 199.625 606.084 183.125C606.084 166.625 608.926 152.875 614.609 141.875C620.476 130.875 628.359 122.625 638.259 117.125C648.343 111.625 659.618 108.875 672.084 108.875C686.384 108.875 699.034 111.992 710.034 118.225C721.034 124.458 729.743 133.167 736.159 144.35C742.576 155.35 745.784 168.275 745.784 183.125C745.784 197.975 742.576 210.992 736.159 222.175C729.743 233.358 721.034 242.067 710.034 248.3C699.034 254.533 686.384 257.65 672.084 257.65ZM594.809 309.35V110.25H620.109V149.575L618.459 183.4L621.209 217.225V309.35H594.809ZM669.884 234.55C679.234 234.55 687.576 232.442 694.909 228.225C702.426 224.008 708.293 218.05 712.509 210.35C716.909 202.467 719.109 193.392 719.109 183.125C719.109 172.675 716.909 163.692 712.509 156.175C708.293 148.475 702.426 142.517 694.909 138.3C687.576 134.083 679.234 131.975 669.884 131.975C660.718 131.975 652.376 134.083 644.859 138.3C637.526 142.517 631.659 148.475 627.259 156.175C623.043 163.692 620.934 172.675 620.934 183.125C620.934 193.392 623.043 202.467 627.259 210.35C631.659 218.05 637.526 224.008 644.859 228.225C652.376 232.442 660.718 234.55 669.884 234.55ZM782.26 256V51.95H808.66V256H782.26ZM865.392 311C858.425 311 851.642 309.808 845.042 307.425C838.442 305.225 832.759 301.925 827.992 297.525L839.267 277.725C842.934 281.208 846.967 283.867 851.367 285.7C855.767 287.533 860.442 288.45 865.392 288.45C871.809 288.45 877.125 286.8 881.342 283.5C885.559 280.2 889.5 274.333 893.167 265.9L902.242 245.825L904.992 242.525L962.192 110.25H988.042L917.367 270.575C913.15 280.842 908.384 288.908 903.067 294.775C897.934 300.642 892.25 304.767 886.017 307.15C879.784 309.717 872.909 311 865.392 311ZM900.042 260.675L833.492 110.25H860.992L917.642 240.05L900.042 260.675Z" fill="currentColor"/>
<rect x="239" y="54" width="2" height="11" fill="white"/>
<rect x="241" y="63" width="9" height="2" fill="white"/>
</g>
<defs>
<clipPath id="clip0_1_4564">
<rect width="1035" height="337" fill="white"/>
</clipPath>
</defs>
</svg>
